{
    "asset" : {
        "copyright" : "CC0 Public Domain",
        "generator" : "Khronos glTF Blender I/O v3.2.43",
        "version" : "2.0"
    },
    "scene" : 0,
    "scenes" : [
        {
            "name" : "Scene",
            "nodes" : [
                0
            ]
        }
    ],
    "nodes" : [
        {
            "mesh" : 0,
            "name" : "Dagger"
        }
    ],
    "meshes" : [
        {
            "name" : "Mesh",
            "primitives" : [
                {
                    "attributes" : {
                        "POSITION" : 0,
                        "NORMAL" : 1,
                        "TEXCOORD_0" : 2
                    },
                    "indices" : 3
                }
            ]
        }
    ],
    "accessors" : [
        {
            "bufferView" : 0,
            "componentType" : 5126,
            "count" : 486,
            "max" : [
                0.014314964413642883,
                0.10734853893518448,
                0.01739293523132801
            ],
            "min" : [
                -0.014314978383481503,
                -0.1737566590309143,
                -0.01739293523132801
            ],
            "type" : "VEC3"
        },
        {
            "bufferView" : 1,
            "componentType" : 5126,
            "count" : 486,
            "type" : "VEC3"
        },
        {
            "bufferView" : 2,
            "componentType" : 5126,
            "count" : 486,
            "type" : "VEC2"
        },
        {
            "bufferView" : 3,
            "componentType" : 5123,
            "count" : 1908,
            "type" : "SCALAR"
        }
    ],
    "bufferViews" : [
        {
            "buffer" : 0,
            "byteLength" : 5832,
            "byteOffset" : 0
        },
        {
            "buffer" : 0,
            "byteLength" : 5832,
            "byteOffset" : 5832
        },
        {
            "buffer" : 0,
            "byteLength" : 3888,
            "byteOffset" : 11664
        },
        {
            "buffer" : 0,
            "byteLength" : 3816,
            "byteOffset" : 15552
        }
    ],
    "buffers" : [
        {
            "byteLength" : 19368,
            "uri" : "data:application/octet-stream;base64,"
        }
    ]
}
