{
    "asset" : {
        "copyright" : "CC0 Public Domain",
        "generator" : "Khronos glTF Blender I/O v3.2.43",
        "version" : "2.0"
    },
    "scene" : 0,
    "scenes" : [
        {
            "name" : "Scene",
            "nodes" : [
                0,
                1,
                2,
                3
            ]
        }
    ],
    "nodes" : [
        {
            "mesh" : 0,
            "name" : "Trigger"
        },
        {
            "mesh" : 1,
            "name" : "Body"
        },
        {
            "mesh" : 2,
            "name" : "Magazine"
        },
        {
            "mesh" : 3,
            "name" : "Slide"
        }
    ],
    "meshes" : [
        {
            "name" : "Plane.018",
            "primitives" : [
                {
                    "attributes" : {
                        "POSITION" : 0,
                        "NORMAL" : 1,
                        "TEXCOORD_0" : 2
                    },
                    "indices" : 3
                }
            ]
        },
        {
            "name" : "Plane.016",
            "primitives" : [
                {
                    "attributes" : {
                        "POSITION" : 4,
                        "NORMAL" : 5,
                        "TEXCOORD_0" : 6
                    },
                    "indices" : 7
                }
            ]
        },
        {
            "name" : "Plane.015",
            "primitives" : [
                {
                    "attributes" : {
                        "POSITION" : 8,
                        "NORMAL" : 9,
                        "TEXCOORD_0" : 10
                    },
                    "indices" : 11
                }
            ]
        },
        {
            "name" : "Plane.004",
            "primitives" : [
                {
                    "attributes" : {
                        "POSITION" : 12,
                        "NORMAL" : 13,
                        "TEXCOORD_0" : 14
                    },
                    "indices" : 15
                }
            ]
        }
    ],
    "accessors" : [
        {
            "bufferView" : 0,
            "componentType" : 5126,
            "count" : 50,
            "max" : [
                0.004511234816163778,
                -0.008683722466230392,
                0.017168480902910233
            ],
            "min" : [
                -0.004650413058698177,
                -0.047958653420209885,
                -0.012363824062049389
            ],
            "type" : "VEC3"
        },
        {
            "bufferView" : 1,
            "componentType" : 5126,
            "count" : 50,
            "type" : "VEC3"
        },
        {
            "bufferView" : 2,
            "componentType" : 5126,
            "count" : 50,
            "type" : "VEC2"
        },
        {
            "bufferView" : 3,
            "componentType" : 5123,
            "count" : 168,
            "type" : "SCALAR"
        },
        {
            "bufferView" : 4,
            "componentType" : 5126,
            "count" : 1843,
            "max" : [
                0.017827216535806656,
                0.02429354190826416,
                0.10814796388149261
            ],
            "min" : [
                -0.019456174224615097,
                -0.1253659576177597,
                -0.1263185441493988
            ],
            "type" : "VEC3"
        },
        {
            "bufferView" : 5,
            "componentType" : 5126,
            "count" : 1843,
            "type" : "VEC3"
        },
        {
            "bufferView" : 6,
            "componentType" : 5126,
            "count" : 1843,
            "type" : "VEC2"
        },
        {
            "bufferView" : 7,
            "componentType" : 5123,
            "count" : 5484,
            "type" : "SCALAR"
        },
        {
            "bufferView" : 8,
            "componentType" : 5126,
            "count" : 57,
            "max" : [
                0.01553287636488676,
                -0.002187131904065609,
                0.09291587769985199
            ],
            "min" : [
                -0.015672074630856514,
                -0.13508766889572144,
                0.01723477989435196
            ],
            "type" : "VEC3"
        },
        {
            "bufferView" : 9,
            "componentType" : 5126,
            "count" : 57,
            "type" : "VEC3"
        },
        {
            "bufferView" : 10,
            "componentType" : 5126,
            "count" : 57,
            "type" : "VEC2"
        },
        {
            "bufferView" : 11,
            "componentType" : 5123,
            "count" : 234,
            "type" : "SCALAR"
        },
        {
            "bufferView" : 12,
            "componentType" : 5126,
            "count" : 1971,
            "max" : [
                0.017569804564118385,
                0.03305095434188843,
                0.0905507355928421
            ],
            "min" : [
                -0.017708996310830116,
                -0.018547212705016136,
                -0.12325791269540787
            ],
            "type" : "VEC3"
        },
        {
            "bufferView" : 13,
            "componentType" : 5126,
            "count" : 1971,
            "type" : "VEC3"
        },
        {
            "bufferView" : 14,
            "componentType" : 5126,
            "count" : 1971,
            "type" : "VEC2"
        },
        {
            "bufferView" : 15,
            "componentType" : 5123,
            "count" : 6900,
            "type" : "SCALAR"
        }
    ],
    "bufferViews" : [
        {
            "buffer" : 0,
            "byteLength" : 600,
            "byteOffset" : 0
        },
        {
            "buffer" : 0,
            "byteLength" : 600,
            "byteOffset" : 600
        },
        {
            "buffer" : 0,
            "byteLength" : 400,
            "byteOffset" : 1200
        },
        {
            "buffer" : 0,
            "byteLength" : 336,
            "byteOffset" : 1600
        },
        {
            "buffer" : 0,
            "byteLength" : 22116,
            "byteOffset" : 1936
        },
        {
            "buffer" : 0,
            "byteLength" : 22116,
            "byteOffset" : 24052
        },
        {
            "buffer" : 0,
            "byteLength" : 14744,
            "byteOffset" : 46168
        },
        {
            "buffer" : 0,
            "byteLength" : 10968,
            "byteOffset" : 60912
        },
        {
            "buffer" : 0,
            "byteLength" : 684,
            "byteOffset" : 71880
        },
        {
            "buffer" : 0,
            "byteLength" : 684,
            "byteOffset" : 72564
        },
        {
            "buffer" : 0,
            "byteLength" : 456,
            "byteOffset" : 73248
        },
        {
            "buffer" : 0,
            "byteLength" : 468,
            "byteOffset" : 73704
        },
        {
            "buffer" : 0,
            "byteLength" : 23652,
            "byteOffset" : 74172
        },
        {
            "buffer" : 0,
            "byteLength" : 23652,
            "byteOffset" : 97824
        },
        {
            "buffer" : 0,
            "byteLength" : 15768,
            "byteOffset" : 121476
        },
        {
            "buffer" : 0,
            "byteLength" : 13800,
            "byteOffset" : 137244
        }
    ],
    "buffers" : [
        {
            "byteLength" : 151044,
            "uri" : "data:application/octet-stream;base64,"
        }
    ]
}
