{
    "asset" : {
        "copyright" : "CC0 Public Domain",
        "generator" : "Khronos glTF Blender I/O v3.2.43",
        "version" : "2.0"
    },
    "scene" : 0,
    "scenes" : [
        {
            "name" : "Scene",
            "nodes" : [
                0
            ]
        }
    ],
    "nodes" : [
        {
            "mesh" : 0,
            "name" : "KitchenKnife"
        }
    ],
    "meshes" : [
        {
            "name" : "Mesh",
            "primitives" : [
                {
                    "attributes" : {
                        "POSITION" : 0,
                        "NORMAL" : 1,
                        "TEXCOORD_0" : 2
                    },
                    "indices" : 3
                }
            ]
        }
    ],
    "accessors" : [
        {
            "bufferView" : 0,
            "componentType" : 5126,
            "count" : 670,
            "max" : [
                0.17903675138950348,
                0.03312375023961067,
                0.006400745362043381
            ],
            "min" : [
                -0.22028276324272156,
                -0.031060975044965744,
                -0.006400672718882561
            ],
            "type" : "VEC3"
        },
        {
            "bufferView" : 1,
            "componentType" : 5126,
            "count" : 670,
            "type" : "VEC3"
        },
        {
            "bufferView" : 2,
            "componentType" : 5126,
            "count" : 670,
            "type" : "VEC2"
        },
        {
            "bufferView" : 3,
            "componentType" : 5123,
            "count" : 1884,
            "type" : "SCALAR"
        }
    ],
    "bufferViews" : [
        {
            "buffer" : 0,
            "byteLength" : 8040,
            "byteOffset" : 0
        },
        {
            "buffer" : 0,
            "byteLength" : 8040,
            "byteOffset" : 8040
        },
        {
            "buffer" : 0,
            "byteLength" : 5360,
            "byteOffset" : 16080
        },
        {
            "buffer" : 0,
            "byteLength" : 3768,
            "byteOffset" : 21440
        }
    ],
    "buffers" : [
        {
            "byteLength" : 25208,
            "uri" : "data:application/octet-stream;base64,"
        }
    ]
}
