{
    "asset" : {
        "copyright" : "CC0 Public Domain",
        "generator" : "Khronos glTF Blender I/O v3.2.43",
        "version" : "2.0"
    },
    "scene" : 0,
    "scenes" : [
        {
            "name" : "Scene",
            "nodes" : [
                2,
                3,
                4
            ]
        }
    ],
    "nodes" : [
        {
            "mesh" : 0,
            "name" : "Ejection_Port",
            "translation" : [
                0.014389981515705585,
                0.03798333555459976,
                0.314889132976532
            ]
        },
        {
            "mesh" : 1,
            "name" : "Loading_Port",
            "translation" : [
                0,
                -0.02007736638188362,
                0.3148888051509857
            ]
        },
        {
            "children" : [
                0,
                1
            ],
            "mesh" : 2,
            "name" : "Stock",
            "translation" : [
                -0.0010966857662424445,
                0.050364211201667786,
                -0.426082044839859
            ]
        },
        {
            "mesh" : 3,
            "name" : "Trigger",
            "translation" : [
                -0.0010966863483190536,
                0.03528744727373123,
                0.017979547381401062
            ]
        },
        {
            "mesh" : 4,
            "name" : "Body",
            "translation" : [
                -0.0005414123297668993,
                0.04506240040063858,
                -0.09499082714319229
            ]
        }
    ],
    "meshes" : [
        {
            "name" : "Mesh.001",
            "primitives" : [
                {
                    "attributes" : {
                        "POSITION" : 0,
                        "NORMAL" : 1,
                        "TEXCOORD_0" : 2
                    },
                    "indices" : 3
                }
            ]
        },
        {
            "name" : "Mesh.005",
            "primitives" : [
                {
                    "attributes" : {
                        "POSITION" : 4,
                        "NORMAL" : 5,
                        "TEXCOORD_0" : 6
                    },
                    "indices" : 7
                }
            ]
        },
        {
            "name" : "Mesh.002",
            "primitives" : [
                {
                    "attributes" : {
                        "POSITION" : 8,
                        "NORMAL" : 9,
                        "TEXCOORD_0" : 10
                    },
                    "indices" : 11
                }
            ]
        },
        {
            "name" : "Mesh.003",
            "primitives" : [
                {
                    "attributes" : {
                        "POSITION" : 12,
                        "NORMAL" : 13,
                        "TEXCOORD_0" : 14
                    },
                    "indices" : 15
                }
            ]
        },
        {
            "name" : "Mesh",
            "primitives" : [
                {
                    "attributes" : {
                        "POSITION" : 16,
                        "NORMAL" : 17,
                        "TEXCOORD_0" : 18
                    },
                    "indices" : 19
                }
            ]
        }
    ],
    "accessors" : [
        {
            "bufferView" : 0,
            "componentType" : 5126,
            "count" : 48,
            "max" : [
                0.0010179132223129272,
                0.010905444622039795,
                0.03870993107557297
            ],
            "min" : [
                -0.00035977084189653397,
                -0.010905444622039795,
                -0.03870994597673416
            ],
            "type" : "VEC3"
        },
        {
            "bufferView" : 1,
            "componentType" : 5126,
            "count" : 48,
            "type" : "VEC3"
        },
        {
            "bufferView" : 2,
            "componentType" : 5126,
            "count" : 48,
            "type" : "VEC2"
        },
        {
            "bufferView" : 3,
            "componentType" : 5123,
            "count" : 108,
            "type" : "SCALAR"
        },
        {
            "bufferView" : 4,
            "componentType" : 5126,
            "count" : 20,
            "max" : [
                0.007332118693739176,
                0.0012945234775543213,
                0.03754618763923645
            ],
            "min" : [
                -0.007332118693739176,
                -0.0012945197522640228,
                -0.03754618763923645
            ],
            "type" : "VEC3"
        },
        {
            "bufferView" : 5,
            "componentType" : 5126,
            "count" : 20,
            "type" : "VEC3"
        },
        {
            "bufferView" : 6,
            "componentType" : 5126,
            "count" : 20,
            "type" : "VEC2"
        },
        {
            "bufferView" : 7,
            "componentType" : 5123,
            "count" : 36,
            "type" : "SCALAR"
        },
        {
            "bufferView" : 8,
            "componentType" : 5126,
            "count" : 136,
            "max" : [
                0.028086556121706963,
                0.028086528182029724,
                0.09173837304115295
            ],
            "min" : [
                -0.028086556121706963,
                -0.0280865877866745,
                -0.09173884987831116
            ],
            "type" : "VEC3"
        },
        {
            "bufferView" : 9,
            "componentType" : 5126,
            "count" : 136,
            "type" : "VEC3"
        },
        {
            "bufferView" : 10,
            "componentType" : 5126,
            "count" : 136,
            "type" : "VEC2"
        },
        {
            "bufferView" : 11,
            "componentType" : 5123,
            "count" : 384,
            "type" : "SCALAR"
        },
        {
            "bufferView" : 12,
            "componentType" : 5126,
            "count" : 64,
            "max" : [
                0.0016552263405174017,
                0,
                0.011967435479164124
            ],
            "min" : [
                -0.0016552263405174017,
                -0.03344119340181351,
                -0.011967435479164124
            ],
            "type" : "VEC3"
        },
        {
            "bufferView" : 13,
            "componentType" : 5126,
            "count" : 64,
            "type" : "VEC3"
        },
        {
            "bufferView" : 14,
            "componentType" : 5126,
            "count" : 64,
            "type" : "VEC2"
        },
        {
            "bufferView" : 15,
            "componentType" : 5123,
            "count" : 132,
            "type" : "SCALAR"
        },
        {
            "bufferView" : 16,
            "componentType" : 5126,
            "count" : 1428,
            "max" : [
                0.01813507080078125,
                0.06827674061059952,
                0.5390099883079529
            ],
            "min" : [
                -0.01924561895430088,
                -0.172477126121521,
                -0.6801749467849731
            ],
            "type" : "VEC3"
        },
        {
            "bufferView" : 17,
            "componentType" : 5126,
            "count" : 1428,
            "type" : "VEC3"
        },
        {
            "bufferView" : 18,
            "componentType" : 5126,
            "count" : 1428,
            "type" : "VEC2"
        },
        {
            "bufferView" : 19,
            "componentType" : 5123,
            "count" : 4725,
            "type" : "SCALAR"
        }
    ],
    "bufferViews" : [
        {
            "buffer" : 0,
            "byteLength" : 576,
            "byteOffset" : 0
        },
        {
            "buffer" : 0,
            "byteLength" : 576,
            "byteOffset" : 576
        },
        {
            "buffer" : 0,
            "byteLength" : 384,
            "byteOffset" : 1152
        },
        {
            "buffer" : 0,
            "byteLength" : 216,
            "byteOffset" : 1536
        },
        {
            "buffer" : 0,
            "byteLength" : 240,
            "byteOffset" : 1752
        },
        {
            "buffer" : 0,
            "byteLength" : 240,
            "byteOffset" : 1992
        },
        {
            "buffer" : 0,
            "byteLength" : 160,
            "byteOffset" : 2232
        },
        {
            "buffer" : 0,
            "byteLength" : 72,
            "byteOffset" : 2392
        },
        {
            "buffer" : 0,
            "byteLength" : 1632,
            "byteOffset" : 2464
        },
        {
            "buffer" : 0,
            "byteLength" : 1632,
            "byteOffset" : 4096
        },
        {
            "buffer" : 0,
            "byteLength" : 1088,
            "byteOffset" : 5728
        },
        {
            "buffer" : 0,
            "byteLength" : 768,
            "byteOffset" : 6816
        },
        {
            "buffer" : 0,
            "byteLength" : 768,
            "byteOffset" : 7584
        },
        {
            "buffer" : 0,
            "byteLength" : 768,
            "byteOffset" : 8352
        },
        {
            "buffer" : 0,
            "byteLength" : 512,
            "byteOffset" : 9120
        },
        {
            "buffer" : 0,
            "byteLength" : 264,
            "byteOffset" : 9632
        },
        {
            "buffer" : 0,
            "byteLength" : 17136,
            "byteOffset" : 9896
        },
        {
            "buffer" : 0,
            "byteLength" : 17136,
            "byteOffset" : 27032
        },
        {
            "buffer" : 0,
            "byteLength" : 11424,
            "byteOffset" : 44168
        },
        {
            "buffer" : 0,
            "byteLength" : 9450,
            "byteOffset" : 55592
        }
    ],
    "buffers" : [
        {
            "byteLength" : 65044,
            "uri" : "data:application/octet-stream;base64,"
        }
    ]
}
