{
    "asset" : {
        "copyright" : "CC0 Public Domain",
        "generator" : "Khronos glTF Blender I/O v3.2.43",
        "version" : "2.0"
    },
    "scene" : 0,
    "scenes" : [
        {
            "name" : "Scene",
            "nodes" : [
                0
            ]
        }
    ],
    "nodes" : [
        {
            "mesh" : 0,
            "name" : "Tomahawk_Modern"
        }
    ],
    "meshes" : [
        {
            "name" : "Mesh",
            "primitives" : [
                {
                    "attributes" : {
                        "POSITION" : 0,
                        "NORMAL" : 1,
                        "TEXCOORD_0" : 2
                    },
                    "indices" : 3
                }
            ]
        }
    ],
    "accessors" : [
        {
            "bufferView" : 0,
            "componentType" : 5126,
            "count" : 411,
            "max" : [
                0.013337886892259121,
                0.26983362436294556,
                0.09161939471960068
            ],
            "min" : [
                -0.013337872922420502,
                -0.17533421516418457,
                -0.08742312341928482
            ],
            "type" : "VEC3"
        },
        {
            "bufferView" : 1,
            "componentType" : 5126,
            "count" : 411,
            "type" : "VEC3"
        },
        {
            "bufferView" : 2,
            "componentType" : 5126,
            "count" : 411,
            "type" : "VEC2"
        },
        {
            "bufferView" : 3,
            "componentType" : 5123,
            "count" : 1302,
            "type" : "SCALAR"
        }
    ],
    "bufferViews" : [
        {
            "buffer" : 0,
            "byteLength" : 4932,
            "byteOffset" : 0
        },
        {
            "buffer" : 0,
            "byteLength" : 4932,
            "byteOffset" : 4932
        },
        {
            "buffer" : 0,
            "byteLength" : 3288,
            "byteOffset" : 9864
        },
        {
            "buffer" : 0,
            "byteLength" : 2604,
            "byteOffset" : 13152
        }
    ],
    "buffers" : [
        {
            "byteLength" : 15756,
            "uri" : "data:application/octet-stream;base64,"
        }
    ]
}
