{
    "asset" : {
        "copyright" : "CC0 Public Domain",
        "generator" : "Khronos glTF Blender I/O v3.2.43",
        "version" : "2.0"
    },
    "scene" : 0,
    "scenes" : [
        {
            "name" : "Scene",
            "nodes" : [
                0
            ]
        }
    ],
    "nodes" : [
        {
            "mesh" : 0,
            "name" : "acc_ronin_gasa"
        }
    ],
    "meshes" : [
        {
            "name" : "Circle.000",
            "primitives" : [
                {
                    "attributes" : {
                        "POSITION" : 0,
                        "NORMAL" : 1,
                        "TEXCOORD_0" : 2
                    },
                    "indices" : 3
                }
            ]
        }
    ],
    "accessors" : [
        {
            "bufferView" : 0,
            "componentType" : 5126,
            "count" : 215,
            "max" : [
                0.38759541511535645,
                0.36820828914642334,
                0.2964620292186737
            ],
            "min" : [
                -0.3875391483306885,
                -0.0010287761688232422,
                -0.47696760296821594
            ],
            "type" : "VEC3"
        },
        {
            "bufferView" : 1,
            "componentType" : 5126,
            "count" : 215,
            "type" : "VEC3"
        },
        {
            "bufferView" : 2,
            "componentType" : 5126,
            "count" : 215,
            "type" : "VEC2"
        },
        {
            "bufferView" : 3,
            "componentType" : 5123,
            "count" : 1080,
            "type" : "SCALAR"
        }
    ],
    "bufferViews" : [
        {
            "buffer" : 0,
            "byteLength" : 2580,
            "byteOffset" : 0
        },
        {
            "buffer" : 0,
            "byteLength" : 2580,
            "byteOffset" : 2580
        },
        {
            "buffer" : 0,
            "byteLength" : 1720,
            "byteOffset" : 5160
        },
        {
            "buffer" : 0,
            "byteLength" : 2160,
            "byteOffset" : 6880
        }
    ],
    "buffers" : [
        {
            "byteLength" : 9040,
            "uri" : "data:application/octet-stream;base64,"
        }
    ]
}
