{
    "asset" : {
        "copyright" : "CC0 Public Domain",
        "generator" : "Khronos glTF Blender I/O v3.2.43",
        "version" : "2.0"
    },
    "scene" : 0,
    "scenes" : [
        {
            "name" : "Scene",
            "nodes" : [
                0
            ]
        }
    ],
    "nodes" : [
        {
            "mesh" : 0,
            "name" : "Woodenman",
            "rotation" : [
                0.7071068286895752,
                0,
                0,
                0.7071067094802856
            ]
        }
    ],
    "meshes" : [
        {
            "name" : "mesh_Woodenman",
            "primitives" : [
                {
                    "attributes" : {
                        "POSITION" : 0,
                        "NORMAL" : 1,
                        "TEXCOORD_0" : 2
                    },
                    "indices" : 3
                }
            ]
        }
    ],
    "accessors" : [
        {
            "bufferView" : 0,
            "componentType" : 5126,
            "count" : 481,
            "max" : [
                0.142567440867424,
                0.4227658808231354,
                0
            ],
            "min" : [
                -0.4950598180294037,
                -0.14278647303581238,
                -1.6012942790985107
            ],
            "type" : "VEC3"
        },
        {
            "bufferView" : 1,
            "componentType" : 5126,
            "count" : 481,
            "type" : "VEC3"
        },
        {
            "bufferView" : 2,
            "componentType" : 5126,
            "count" : 481,
            "type" : "VEC2"
        },
        {
            "bufferView" : 3,
            "componentType" : 5123,
            "count" : 1920,
            "type" : "SCALAR"
        }
    ],
    "bufferViews" : [
        {
            "buffer" : 0,
            "byteLength" : 5772,
            "byteOffset" : 0
        },
        {
            "buffer" : 0,
            "byteLength" : 5772,
            "byteOffset" : 5772
        },
        {
            "buffer" : 0,
            "byteLength" : 3848,
            "byteOffset" : 11544
        },
        {
            "buffer" : 0,
            "byteLength" : 3840,
            "byteOffset" : 15392
        }
    ],
    "buffers" : [
        {
            "byteLength" : 19232,
            "uri" : "data:application/octet-stream;base64,"
        }
    ]
}
