{
    "asset" : {
        "copyright" : "CC0 Public Domain",
        "generator" : "Khronos glTF Blender I/O v3.2.43",
        "version" : "2.0"
    },
    "scene" : 0,
    "scenes" : [
        {
            "name" : "Scene",
            "nodes" : [
                0,
                3,
                4,
                5,
                6
            ]
        }
    ],
    "nodes" : [
        {
            "mesh" : 0,
            "name" : "Magazine"
        },
        {
            "mesh" : 1,
            "name" : "Hammer"
        },
        {
            "mesh" : 2,
            "name" : "Safety"
        },
        {
            "children" : [
                1,
                2
            ],
            "mesh" : 3,
            "name" : "Slide"
        },
        {
            "mesh" : 4,
            "name" : "Trigger"
        },
        {
            "mesh" : 5,
            "name" : "Barrel"
        },
        {
            "mesh" : 6,
            "name" : "Body"
        }
    ],
    "meshes" : [
        {
            "name" : "Mesh.004",
            "primitives" : [
                {
                    "attributes" : {
                        "POSITION" : 0,
                        "NORMAL" : 1,
                        "TEXCOORD_0" : 2
                    },
                    "indices" : 3
                }
            ]
        },
        {
            "name" : "Mesh.006",
            "primitives" : [
                {
                    "attributes" : {
                        "POSITION" : 4,
                        "NORMAL" : 5,
                        "TEXCOORD_0" : 6
                    },
                    "indices" : 7
                }
            ]
        },
        {
            "name" : "Mesh.007",
            "primitives" : [
                {
                    "attributes" : {
                        "POSITION" : 8,
                        "NORMAL" : 9,
                        "TEXCOORD_0" : 10
                    },
                    "indices" : 11
                }
            ]
        },
        {
            "name" : "Mesh.005",
            "primitives" : [
                {
                    "attributes" : {
                        "POSITION" : 12,
                        "NORMAL" : 13,
                        "TEXCOORD_0" : 14
                    },
                    "indices" : 15
                }
            ]
        },
        {
            "name" : "Mesh.008",
            "primitives" : [
                {
                    "attributes" : {
                        "POSITION" : 16,
                        "NORMAL" : 17,
                        "TEXCOORD_0" : 18
                    },
                    "indices" : 19
                }
            ]
        },
        {
            "name" : "Mesh.009",
            "primitives" : [
                {
                    "attributes" : {
                        "POSITION" : 20,
                        "NORMAL" : 21,
                        "TEXCOORD_0" : 22
                    },
                    "indices" : 23
                }
            ]
        },
        {
            "name" : "Mesh.010",
            "primitives" : [
                {
                    "attributes" : {
                        "POSITION" : 24,
                        "NORMAL" : 25,
                        "TEXCOORD_0" : 26
                    },
                    "indices" : 27
                }
            ]
        }
    ],
    "accessors" : [
        {
            "bufferView" : 0,
            "componentType" : 5126,
            "count" : 207,
            "max" : [
                0.011468922719359398,
                0.004654243588447571,
                0.10321745276451111
            ],
            "min" : [
                -0.01060556247830391,
                -0.12134511023759842,
                0.03633805736899376
            ],
            "type" : "VEC3"
        },
        {
            "bufferView" : 1,
            "componentType" : 5126,
            "count" : 207,
            "type" : "VEC3"
        },
        {
            "bufferView" : 2,
            "componentType" : 5126,
            "count" : 207,
            "type" : "VEC2"
        },
        {
            "bufferView" : 3,
            "componentType" : 5123,
            "count" : 510,
            "type" : "SCALAR"
        },
        {
            "bufferView" : 4,
            "componentType" : 5126,
            "count" : 248,
            "max" : [
                0.0044903382658958435,
                0.030599666759371758,
                0.10444072633981705
            ],
            "min" : [
                -0.004490446764975786,
                -0.0007214508950710297,
                0.08000978827476501
            ],
            "type" : "VEC3"
        },
        {
            "bufferView" : 5,
            "componentType" : 5126,
            "count" : 248,
            "type" : "VEC3"
        },
        {
            "bufferView" : 6,
            "componentType" : 5126,
            "count" : 248,
            "type" : "VEC2"
        },
        {
            "bufferView" : 7,
            "componentType" : 5123,
            "count" : 672,
            "type" : "SCALAR"
        },
        {
            "bufferView" : 8,
            "componentType" : 5126,
            "count" : 240,
            "max" : [
                -0.013625898398458958,
                0.021583251655101776,
                0.09003303200006485
            ],
            "min" : [
                -0.016723109409213066,
                0.010950994677841663,
                0.06756895780563354
            ],
            "type" : "VEC3"
        },
        {
            "bufferView" : 9,
            "componentType" : 5126,
            "count" : 240,
            "type" : "VEC3"
        },
        {
            "bufferView" : 10,
            "componentType" : 5126,
            "count" : 240,
            "type" : "VEC2"
        },
        {
            "bufferView" : 11,
            "componentType" : 5123,
            "count" : 540,
            "type" : "SCALAR"
        },
        {
            "bufferView" : 12,
            "componentType" : 5126,
            "count" : 1813,
            "max" : [
                0.015426645055413246,
                0.03913593292236328,
                0.11129777133464813
            ],
            "min" : [
                -0.015426755882799625,
                8.925795555114746e-06,
                -0.09598435461521149
            ],
            "type" : "VEC3"
        },
        {
            "bufferView" : 13,
            "componentType" : 5126,
            "count" : 1813,
            "type" : "VEC3"
        },
        {
            "bufferView" : 14,
            "componentType" : 5126,
            "count" : 1813,
            "type" : "VEC2"
        },
        {
            "bufferView" : 15,
            "componentType" : 5123,
            "count" : 5457,
            "type" : "SCALAR"
        },
        {
            "bufferView" : 16,
            "componentType" : 5126,
            "count" : 82,
            "max" : [
                0.004138822667300701,
                -0.002527991309762001,
                0.013678431510925293
            ],
            "min" : [
                -0.003515798132866621,
                -0.03399890288710594,
                0.00016166456043720245
            ],
            "type" : "VEC3"
        },
        {
            "bufferView" : 17,
            "componentType" : 5126,
            "count" : 82,
            "type" : "VEC3"
        },
        {
            "bufferView" : 18,
            "componentType" : 5126,
            "count" : 82,
            "type" : "VEC2"
        },
        {
            "bufferView" : 19,
            "componentType" : 5123,
            "count" : 180,
            "type" : "SCALAR"
        },
        {
            "bufferView" : 20,
            "componentType" : 5126,
            "count" : 468,
            "max" : [
                0.011056458577513695,
                0.03328130766749382,
                0.02462529018521309
            ],
            "min" : [
                -0.010227527469396591,
                0.011328764259815216,
                -0.09653281420469284
            ],
            "type" : "VEC3"
        },
        {
            "bufferView" : 21,
            "componentType" : 5126,
            "count" : 468,
            "type" : "VEC3"
        },
        {
            "bufferView" : 22,
            "componentType" : 5126,
            "count" : 468,
            "type" : "VEC2"
        },
        {
            "bufferView" : 23,
            "componentType" : 5123,
            "count" : 1200,
            "type" : "SCALAR"
        },
        {
            "bufferView" : 24,
            "componentType" : 5126,
            "count" : 1089,
            "max" : [
                0.01455824263393879,
                0.0009440034627914429,
                0.11403860151767731
            ],
            "min" : [
                -0.015873292461037636,
                -0.11747339367866516,
                -0.05145428702235222
            ],
            "type" : "VEC3"
        },
        {
            "bufferView" : 25,
            "componentType" : 5126,
            "count" : 1089,
            "type" : "VEC3"
        },
        {
            "bufferView" : 26,
            "componentType" : 5126,
            "count" : 1089,
            "type" : "VEC2"
        },
        {
            "bufferView" : 27,
            "componentType" : 5123,
            "count" : 3414,
            "type" : "SCALAR"
        }
    ],
    "bufferViews" : [
        {
            "buffer" : 0,
            "byteLength" : 2484,
            "byteOffset" : 0
        },
        {
            "buffer" : 0,
            "byteLength" : 2484,
            "byteOffset" : 2484
        },
        {
            "buffer" : 0,
            "byteLength" : 1656,
            "byteOffset" : 4968
        },
        {
            "buffer" : 0,
            "byteLength" : 1020,
            "byteOffset" : 6624
        },
        {
            "buffer" : 0,
            "byteLength" : 2976,
            "byteOffset" : 7644
        },
        {
            "buffer" : 0,
            "byteLength" : 2976,
            "byteOffset" : 10620
        },
        {
            "buffer" : 0,
            "byteLength" : 1984,
            "byteOffset" : 13596
        },
        {
            "buffer" : 0,
            "byteLength" : 1344,
            "byteOffset" : 15580
        },
        {
            "buffer" : 0,
            "byteLength" : 2880,
            "byteOffset" : 16924
        },
        {
            "buffer" : 0,
            "byteLength" : 2880,
            "byteOffset" : 19804
        },
        {
            "buffer" : 0,
            "byteLength" : 1920,
            "byteOffset" : 22684
        },
        {
            "buffer" : 0,
            "byteLength" : 1080,
            "byteOffset" : 24604
        },
        {
            "buffer" : 0,
            "byteLength" : 21756,
            "byteOffset" : 25684
        },
        {
            "buffer" : 0,
            "byteLength" : 21756,
            "byteOffset" : 47440
        },
        {
            "buffer" : 0,
            "byteLength" : 14504,
            "byteOffset" : 69196
        },
        {
            "buffer" : 0,
            "byteLength" : 10914,
            "byteOffset" : 83700
        },
        {
            "buffer" : 0,
            "byteLength" : 984,
            "byteOffset" : 94616
        },
        {
            "buffer" : 0,
            "byteLength" : 984,
            "byteOffset" : 95600
        },
        {
            "buffer" : 0,
            "byteLength" : 656,
            "byteOffset" : 96584
        },
        {
            "buffer" : 0,
            "byteLength" : 360,
            "byteOffset" : 97240
        },
        {
            "buffer" : 0,
            "byteLength" : 5616,
            "byteOffset" : 97600
        },
        {
            "buffer" : 0,
            "byteLength" : 5616,
            "byteOffset" : 103216
        },
        {
            "buffer" : 0,
            "byteLength" : 3744,
            "byteOffset" : 108832
        },
        {
            "buffer" : 0,
            "byteLength" : 2400,
            "byteOffset" : 112576
        },
        {
            "buffer" : 0,
            "byteLength" : 13068,
            "byteOffset" : 114976
        },
        {
            "buffer" : 0,
            "byteLength" : 13068,
            "byteOffset" : 128044
        },
        {
            "buffer" : 0,
            "byteLength" : 8712,
            "byteOffset" : 141112
        },
        {
            "buffer" : 0,
            "byteLength" : 6828,
            "byteOffset" : 149824
        }
    ],
    "buffers" : [
        {
            "byteLength" : 156652,
            "uri" : "data:application/octet-stream;base64,"
        }
    ]
}
