{
    "asset" : {
        "copyright" : "CC0 Public Domain",
        "generator" : "Khronos glTF Blender I/O v3.2.43",
        "version" : "2.0"
    },
    "scene" : 0,
    "scenes" : [
        {
            "name" : "Scene",
            "nodes" : [
                0
            ]
        }
    ],
    "nodes" : [
        {
            "mesh" : 0,
            "name" : "FireAxe"
        }
    ],
    "meshes" : [
        {
            "name" : "Mesh",
            "primitives" : [
                {
                    "attributes" : {
                        "POSITION" : 0,
                        "NORMAL" : 1,
                        "TEXCOORD_0" : 2
                    },
                    "indices" : 3
                }
            ]
        }
    ],
    "accessors" : [
        {
            "bufferView" : 0,
            "componentType" : 5126,
            "count" : 569,
            "max" : [
                0.03392932564020157,
                0.36678093671798706,
                0.1372903734445572
            ],
            "min" : [
                -0.03392921760678291,
                -0.5337045788764954,
                -0.1795434057712555
            ],
            "type" : "VEC3"
        },
        {
            "bufferView" : 1,
            "componentType" : 5126,
            "count" : 569,
            "type" : "VEC3"
        },
        {
            "bufferView" : 2,
            "componentType" : 5126,
            "count" : 569,
            "type" : "VEC2"
        },
        {
            "bufferView" : 3,
            "componentType" : 5123,
            "count" : 2226,
            "type" : "SCALAR"
        }
    ],
    "bufferViews" : [
        {
            "buffer" : 0,
            "byteLength" : 6828,
            "byteOffset" : 0
        },
        {
            "buffer" : 0,
            "byteLength" : 6828,
            "byteOffset" : 6828
        },
        {
            "buffer" : 0,
            "byteLength" : 4552,
            "byteOffset" : 13656
        },
        {
            "buffer" : 0,
            "byteLength" : 4452,
            "byteOffset" : 18208
        }
    ],
    "buffers" : [
        {
            "byteLength" : 22660,
            "uri" : "data:application/octet-stream;base64,"
        }
    ]
}
