{
    "asset" : {
        "copyright" : "CC0 Public Domain",
        "generator" : "Khronos glTF Blender I/O v3.2.43",
        "version" : "2.0"
    },
    "scene" : 0,
    "scenes" : [
        {
            "name" : "Scene",
            "nodes" : [
                0
            ]
        }
    ],
    "nodes" : [
        {
            "mesh" : 0,
            "name" : "Plane",
            "rotation" : [
                0.7071068286895752,
                0,
                0,
                0.7071068286895752
            ],
            "scale" : [
                0.060060009360313416,
                0.060060009360313416,
                0.060060009360313416
            ],
            "translation" : [
                0,
                0.4449999928474426,
                0
            ]
        }
    ],
    "meshes" : [
        {
            "name" : "Plane.001",
            "primitives" : [
                {
                    "attributes" : {
                        "POSITION" : 0,
                        "NORMAL" : 1,
                        "TEXCOORD_0" : 2,
                        "TEXCOORD_1" : 3
                    },
                    "indices" : 4
                }
            ]
        }
    ],
    "accessors" : [
        {
            "bufferView" : 0,
            "componentType" : 5126,
            "count" : 365,
            "max" : [
                4.474738121032715,
                4.1132965087890625,
                7.419697284698486
            ],
            "min" : [
                -4.474737167358398,
                -3.0336344242095947,
                -5.694601535797119
            ],
            "type" : "VEC3"
        },
        {
            "bufferView" : 1,
            "componentType" : 5126,
            "count" : 365,
            "type" : "VEC3"
        },
        {
            "bufferView" : 2,
            "componentType" : 5126,
            "count" : 365,
            "type" : "VEC2"
        },
        {
            "bufferView" : 3,
            "componentType" : 5126,
            "count" : 365,
            "type" : "VEC2"
        },
        {
            "bufferView" : 4,
            "componentType" : 5123,
            "count" : 1320,
            "type" : "SCALAR"
        }
    ],
    "bufferViews" : [
        {
            "buffer" : 0,
            "byteLength" : 4380,
            "byteOffset" : 0
        },
        {
            "buffer" : 0,
            "byteLength" : 4380,
            "byteOffset" : 4380
        },
        {
            "buffer" : 0,
            "byteLength" : 2920,
            "byteOffset" : 8760
        },
        {
            "buffer" : 0,
            "byteLength" : 2920,
            "byteOffset" : 11680
        },
        {
            "buffer" : 0,
            "byteLength" : 2640,
            "byteOffset" : 14600
        }
    ],
    "buffers" : [
        {
            "byteLength" : 17240,
            "uri" : "data:application/octet-stream;base64,"
        }
    ]
}
