{
    "asset" : {
        "generator" : "Khronos glTF Blender I/O v1.2.75",
        "version" : "2.0"
    },
    "scene" : 0,
    "scenes" : [
        {
            "name" : "Scene",
            "nodes" : [
                0,
                1,
                2,
                3,
                4,
                5,
                6,
                7,
                8
            ]
        }
    ],
    "nodes" : [
        {
            "mesh" : 0,
            "name" : "Cube"
        },
        {
            "mesh" : 1,
            "name" : "Cube_cell",
            "translation" : [
                0.4419708847999573,
                0.29823243618011475,
                -0.394878089427948
            ]
        },
        {
            "mesh" : 2,
            "name" : "Cube_cell.001",
            "translation" : [
                0.5792282223701477,
                -0.5417345762252808,
                -0.3987014889717102
            ]
        },
        {
            "mesh" : 3,
            "name" : "Cube_cell.002",
            "translation" : [
                0.4085674285888672,
                0.7135676145553589,
                0.2387237846851349
            ]
        },
        {
            "mesh" : 4,
            "name" : "Cube_cell.003",
            "translation" : [
                0.346805602312088,
                -0.3743470311164856,
                0.38076627254486084
            ]
        },
        {
            "mesh" : 5,
            "name" : "Cube_cell.004",
            "translation" : [
                -0.44593045115470886,
                0.6916266083717346,
                -0.5343194007873535
            ]
        },
        {
            "mesh" : 6,
            "name" : "Cube_cell.005",
            "translation" : [
                -0.36364030838012695,
                -0.25808465480804443,
                -0.4010222554206848
            ]
        },
        {
            "mesh" : 7,
            "name" : "Cube_cell.006",
            "translation" : [
                -0.43524473905563354,
                0.4538227319717407,
                0.26661592721939087
            ]
        },
        {
            "mesh" : 8,
            "name" : "Cube_cell.007",
            "translation" : [
                -0.5523301959037781,
                -0.5118148326873779,
                0.5651291012763977
            ]
        }
    ],
    "materials" : [
        {
            "doubleSided" : true,
            "emissiveFactor" : [
                0,
                0,
                0
            ],
            "name" : "Material",
            "pbrMetallicRoughness" : {
                "baseColorFactor" : [
                    0.800000011920929,
                    0.800000011920929,
                    0.800000011920929,
                    1
                ],
                "metallicFactor" : 0,
                "roughnessFactor" : 0.4000000059604645
            }
        }
    ],
    "meshes" : [
        {
            "name" : "Cube",
            "primitives" : [
                {
                    "attributes" : {
                        "POSITION" : 0,
                        "NORMAL" : 1,
                        "TEXCOORD_0" : 2
                    },
                    "indices" : 3,
                    "material" : 0
                }
            ]
        },
        {
            "name" : "Cube_cell.008",
            "primitives" : [
                {
                    "attributes" : {
                        "POSITION" : 4,
                        "NORMAL" : 5,
                        "TEXCOORD_0" : 6
                    },
                    "indices" : 7,
                    "material" : 0
                }
            ]
        },
        {
            "name" : "Cube_cell.009",
            "primitives" : [
                {
                    "attributes" : {
                        "POSITION" : 8,
                        "NORMAL" : 9,
                        "TEXCOORD_0" : 10
                    },
                    "indices" : 11,
                    "material" : 0
                }
            ]
        },
        {
            "name" : "Cube_cell.001",
            "primitives" : [
                {
                    "attributes" : {
                        "POSITION" : 12,
                        "NORMAL" : 13,
                        "TEXCOORD_0" : 14
                    },
                    "indices" : 15,
                    "material" : 0
                }
            ]
        },
        {
            "name" : "Cube_cell.002",
            "primitives" : [
                {
                    "attributes" : {
                        "POSITION" : 16,
                        "NORMAL" : 17,
                        "TEXCOORD_0" : 18
                    },
                    "indices" : 19,
                    "material" : 0
                }
            ]
        },
        {
            "name" : "Cube_cell.003",
            "primitives" : [
                {
                    "attributes" : {
                        "POSITION" : 20,
                        "NORMAL" : 21,
                        "TEXCOORD_0" : 22
                    },
                    "indices" : 23,
                    "material" : 0
                }
            ]
        },
        {
            "name" : "Cube_cell.004",
            "primitives" : [
                {
                    "attributes" : {
                        "POSITION" : 24,
                        "NORMAL" : 25,
                        "TEXCOORD_0" : 26
                    },
                    "indices" : 27,
                    "material" : 0
                }
            ]
        },
        {
            "name" : "Cube_cell.005",
            "primitives" : [
                {
                    "attributes" : {
                        "POSITION" : 28,
                        "NORMAL" : 29,
                        "TEXCOORD_0" : 30
                    },
                    "indices" : 31,
                    "material" : 0
                }
            ]
        },
        {
            "name" : "Cube_cell.006",
            "primitives" : [
                {
                    "attributes" : {
                        "POSITION" : 32,
                        "NORMAL" : 33,
                        "TEXCOORD_0" : 34
                    },
                    "indices" : 35,
                    "material" : 0
                }
            ]
        }
    ],
    "accessors" : [
        {
            "bufferView" : 0,
            "componentType" : 5126,
            "count" : 24,
            "max" : [
                1,
                1,
                1
            ],
            "min" : [
                -1,
                -1,
                -1
            ],
            "type" : "VEC3"
        },
        {
            "bufferView" : 1,
            "componentType" : 5126,
            "count" : 24,
            "type" : "VEC3"
        },
        {
            "bufferView" : 2,
            "componentType" : 5126,
            "count" : 24,
            "type" : "VEC2"
        },
        {
            "bufferView" : 3,
            "componentType" : 5123,
            "count" : 36,
            "type" : "SCALAR"
        },
        {
            "bufferView" : 4,
            "componentType" : 5126,
            "count" : 68,
            "max" : [
                0.5580291152000427,
                0.7017675638198853,
                0.531493604183197
            ],
            "min" : [
                -0.6248812079429626,
                -0.649511456489563,
                -0.605121910572052
            ],
            "type" : "VEC3"
        },
        {
            "bufferView" : 5,
            "componentType" : 5126,
            "count" : 68,
            "type" : "VEC3"
        },
        {
            "bufferView" : 6,
            "componentType" : 5126,
            "count" : 68,
            "type" : "VEC2"
        },
        {
            "bufferView" : 7,
            "componentType" : 5123,
            "count" : 108,
            "type" : "SCALAR"
        },
        {
            "bufferView" : 8,
            "componentType" : 5126,
            "count" : 36,
            "max" : [
                0.4207717776298523,
                0.44906413555145264,
                0.5711876153945923
            ],
            "min" : [
                -0.4995957016944885,
                -0.45826542377471924,
                -0.6012985110282898
            ],
            "type" : "VEC3"
        },
        {
            "bufferView" : 9,
            "componentType" : 5126,
            "count" : 36,
            "type" : "VEC3"
        },
        {
            "bufferView" : 10,
            "componentType" : 5126,
            "count" : 36,
            "type" : "VEC2"
        },
        {
            "bufferView" : 11,
            "componentType" : 5123,
            "count" : 60,
            "type" : "SCALAR"
        },
        {
            "bufferView" : 12,
            "componentType" : 5126,
            "count" : 38,
            "max" : [
                0.5914325714111328,
                0.2864323854446411,
                0.7612762451171875
            ],
            "min" : [
                -0.5145367383956909,
                -0.7597522735595703,
                -0.538100004196167
            ],
            "type" : "VEC3"
        },
        {
            "bufferView" : 13,
            "componentType" : 5126,
            "count" : 38,
            "type" : "VEC3"
        },
        {
            "bufferView" : 14,
            "componentType" : 5126,
            "count" : 38,
            "type" : "VEC2"
        },
        {
            "bufferView" : 15,
            "componentType" : 5123,
            "count" : 60,
            "type" : "SCALAR"
        },
        {
            "bufferView" : 16,
            "componentType" : 5126,
            "count" : 60,
            "max" : [
                0.6531944274902344,
                0.729102611541748,
                0.6192337274551392
            ],
            "min" : [
                -0.5082694292068481,
                -0.6256529688835144,
                -0.48095154762268066
            ],
            "type" : "VEC3"
        },
        {
            "bufferView" : 17,
            "componentType" : 5126,
            "count" : 60,
            "type" : "VEC3"
        },
        {
            "bufferView" : 18,
            "componentType" : 5126,
            "count" : 60,
            "type" : "VEC2"
        },
        {
            "bufferView" : 19,
            "componentType" : 5123,
            "count" : 96,
            "type" : "SCALAR"
        },
        {
            "bufferView" : 20,
            "componentType" : 5126,
            "count" : 38,
            "max" : [
                0.5542364120483398,
                0.3083733916282654,
                0.33751118183135986
            ],
            "min" : [
                -0.5540695190429688,
                -0.7427136301994324,
                -0.4656805992126465
            ],
            "type" : "VEC3"
        },
        {
            "bufferView" : 21,
            "componentType" : 5126,
            "count" : 38,
            "type" : "VEC3"
        },
        {
            "bufferView" : 22,
            "componentType" : 5126,
            "count" : 38,
            "type" : "VEC2"
        },
        {
            "bufferView" : 23,
            "componentType" : 5123,
            "count" : 60,
            "type" : "SCALAR"
        },
        {
            "bufferView" : 24,
            "componentType" : 5126,
            "count" : 62,
            "max" : [
                0.5833629369735718,
                0.720898449420929,
                0.5925533175468445
            ],
            "min" : [
                -0.636359691619873,
                -0.7419153451919556,
                -0.5989777445793152
            ],
            "type" : "VEC3"
        },
        {
            "bufferView" : 25,
            "componentType" : 5126,
            "count" : 62,
            "type" : "VEC3"
        },
        {
            "bufferView" : 26,
            "componentType" : 5126,
            "count" : 62,
            "type" : "VEC2"
        },
        {
            "bufferView" : 27,
            "componentType" : 5123,
            "count" : 102,
            "type" : "SCALAR"
        },
        {
            "bufferView" : 28,
            "componentType" : 5126,
            "count" : 68,
            "max" : [
                0.742457389831543,
                0.5461772680282593,
                0.7333840727806091
            ],
            "min" : [
                -0.5647552609443665,
                -0.47923076152801514,
                -0.5518808960914612
            ],
            "type" : "VEC3"
        },
        {
            "bufferView" : 29,
            "componentType" : 5126,
            "count" : 68,
            "type" : "VEC3"
        },
        {
            "bufferView" : 30,
            "componentType" : 5126,
            "count" : 68,
            "type" : "VEC2"
        },
        {
            "bufferView" : 31,
            "componentType" : 5123,
            "count" : 108,
            "type" : "SCALAR"
        },
        {
            "bufferView" : 32,
            "componentType" : 5126,
            "count" : 24,
            "max" : [
                0.5109236240386963,
                0.49213099479675293,
                0.4348708987236023
            ],
            "min" : [
                -0.4476698040962219,
                -0.48818516731262207,
                -0.4991986155509949
            ],
            "type" : "VEC3"
        },
        {
            "bufferView" : 33,
            "componentType" : 5126,
            "count" : 24,
            "type" : "VEC3"
        },
        {
            "bufferView" : 34,
            "componentType" : 5126,
            "count" : 24,
            "type" : "VEC2"
        },
        {
            "bufferView" : 35,
            "componentType" : 5123,
            "count" : 36,
            "type" : "SCALAR"
        }
    ],
    "bufferViews" : [
        {
            "buffer" : 0,
            "byteLength" : 288,
            "byteOffset" : 0
        },
        {
            "buffer" : 0,
            "byteLength" : 288,
            "byteOffset" : 288
        },
        {
            "buffer" : 0,
            "byteLength" : 192,
            "byteOffset" : 576
        },
        {
            "buffer" : 0,
            "byteLength" : 72,
            "byteOffset" : 768
        },
        {
            "buffer" : 0,
            "byteLength" : 816,
            "byteOffset" : 840
        },
        {
            "buffer" : 0,
            "byteLength" : 816,
            "byteOffset" : 1656
        },
        {
            "buffer" : 0,
            "byteLength" : 544,
            "byteOffset" : 2472
        },
        {
            "buffer" : 0,
            "byteLength" : 216,
            "byteOffset" : 3016
        },
        {
            "buffer" : 0,
            "byteLength" : 432,
            "byteOffset" : 3232
        },
        {
            "buffer" : 0,
            "byteLength" : 432,
            "byteOffset" : 3664
        },
        {
            "buffer" : 0,
            "byteLength" : 288,
            "byteOffset" : 4096
        },
        {
            "buffer" : 0,
            "byteLength" : 120,
            "byteOffset" : 4384
        },
        {
            "buffer" : 0,
            "byteLength" : 456,
            "byteOffset" : 4504
        },
        {
            "buffer" : 0,
            "byteLength" : 456,
            "byteOffset" : 4960
        },
        {
            "buffer" : 0,
            "byteLength" : 304,
            "byteOffset" : 5416
        },
        {
            "buffer" : 0,
            "byteLength" : 120,
            "byteOffset" : 5720
        },
        {
            "buffer" : 0,
            "byteLength" : 720,
            "byteOffset" : 5840
        },
        {
            "buffer" : 0,
            "byteLength" : 720,
            "byteOffset" : 6560
        },
        {
            "buffer" : 0,
            "byteLength" : 480,
            "byteOffset" : 7280
        },
        {
            "buffer" : 0,
            "byteLength" : 192,
            "byteOffset" : 7760
        },
        {
            "buffer" : 0,
            "byteLength" : 456,
            "byteOffset" : 7952
        },
        {
            "buffer" : 0,
            "byteLength" : 456,
            "byteOffset" : 8408
        },
        {
            "buffer" : 0,
            "byteLength" : 304,
            "byteOffset" : 8864
        },
        {
            "buffer" : 0,
            "byteLength" : 120,
            "byteOffset" : 9168
        },
        {
            "buffer" : 0,
            "byteLength" : 744,
            "byteOffset" : 9288
        },
        {
            "buffer" : 0,
            "byteLength" : 744,
            "byteOffset" : 10032
        },
        {
            "buffer" : 0,
            "byteLength" : 496,
            "byteOffset" : 10776
        },
        {
            "buffer" : 0,
            "byteLength" : 204,
            "byteOffset" : 11272
        },
        {
            "buffer" : 0,
            "byteLength" : 816,
            "byteOffset" : 11476
        },
        {
            "buffer" : 0,
            "byteLength" : 816,
            "byteOffset" : 12292
        },
        {
            "buffer" : 0,
            "byteLength" : 544,
            "byteOffset" : 13108
        },
        {
            "buffer" : 0,
            "byteLength" : 216,
            "byteOffset" : 13652
        },
        {
            "buffer" : 0,
            "byteLength" : 288,
            "byteOffset" : 13868
        },
        {
            "buffer" : 0,
            "byteLength" : 288,
            "byteOffset" : 14156
        },
        {
            "buffer" : 0,
            "byteLength" : 192,
            "byteOffset" : 14444
        },
        {
            "buffer" : 0,
            "byteLength" : 72,
            "byteOffset" : 14636
        }
    ],
    "buffers" : [
        {
            "byteLength" : 14708,
            "uri" : "data:application/octet-stream;base64,"
        }
    ]
}
