{
    "asset" : {
        "copyright" : "CC0 Public Domain",
        "generator" : "Khronos glTF Blender I/O v1.6.16",
        "version" : "2.0"
    },
    "scene" : 0,
    "scenes" : [
        {
            "name" : "Scene",
            "nodes" : [
                0
            ]
        }
    ],
    "nodes" : [
        {
            "mesh" : 0,
            "name" : "Stage_Dojo",
            "rotation" : [
                0.7071068286895752,
                0,
                0,
                0.7071067094802856
            ],
            "scale" : [
                1.5,
                1.5,
                1.5
            ]
        }
    ],
    "meshes" : [
        {
            "name" : "mesh_Dojo",
            "primitives" : [
                {
                    "attributes" : {
                        "POSITION" : 0,
                        "NORMAL" : 1,
                        "TEXCOORD_0" : 2
                    },
                    "indices" : 3
                }
            ]
        }
    ],
    "accessors" : [
        {
            "bufferView" : 0,
            "componentType" : 5126,
            "count" : 6475,
            "max" : [
                2.9543209075927734,
                3.963597059249878,
                0.00046800001291558146
            ],
            "min" : [
                -2.9601330757141113,
                -3.9635961055755615,
                -2.91212797164917
            ],
            "type" : "VEC3"
        },
        {
            "bufferView" : 1,
            "componentType" : 5126,
            "count" : 6475,
            "type" : "VEC3"
        },
        {
            "bufferView" : 2,
            "componentType" : 5126,
            "count" : 6475,
            "type" : "VEC2"
        },
        {
            "bufferView" : 3,
            "componentType" : 5123,
            "count" : 19164,
            "type" : "SCALAR"
        }
    ],
    "bufferViews" : [
        {
            "buffer" : 0,
            "byteLength" : 77700,
            "byteOffset" : 0
        },
        {
            "buffer" : 0,
            "byteLength" : 77700,
            "byteOffset" : 77700
        },
        {
            "buffer" : 0,
            "byteLength" : 51800,
            "byteOffset" : 155400
        },
        {
            "buffer" : 0,
            "byteLength" : 38328,
            "byteOffset" : 207200
        }
    ],
    "buffers" : [
        {
            "byteLength" : 245528,
            "uri" : "data:application/octet-stream;base64,"
        }
    ]
}
