{
    "asset" : {
        "copyright" : "CC0 Public Domain",
        "generator" : "Khronos glTF Blender I/O v3.2.43",
        "version" : "2.0"
    },
    "scene" : 0,
    "scenes" : [
        {
            "name" : "Scene",
            "nodes" : [
                0,
                1,
                5,
                7
            ]
        }
    ],
    "nodes" : [
        {
            "mesh" : 0,
            "name" : "Lock",
            "translation" : [
                -0.009294197894632816,
                0.0010205954313278198,
                -0.05213707685470581
            ]
        },
        {
            "mesh" : 1,
            "name" : "Body"
        },
        {
            "mesh" : 2,
            "name" : "Drum",
            "translation" : [
                8.853109466144815e-05,
                1.3388693332672119e-05,
                -9.251944720745087e-05
            ]
        },
        {
            "children" : [
                2
            ],
            "mesh" : 3,
            "name" : "Connector_Child",
            "translation" : [
                0,
                0.022261876612901688,
                7.4766576290130615e-06
            ]
        },
        {
            "children" : [
                3
            ],
            "mesh" : 4,
            "name" : "Connector",
            "translation" : [
                -8.768721454543993e-05,
                0.005433929152786732,
                0.023349057883024216
            ]
        },
        {
            "children" : [
                4
            ],
            "mesh" : 5,
            "name" : "Rotator",
            "translation" : [
                8.307714779220987e-06,
                -0.01917199231684208,
                -0.0381961353123188
            ]
        },
        {
            "mesh" : 6,
            "name" : "Hammer",
            "translation" : [
                0,
                -0.005170576274394989,
                0.03439342603087425
            ]
        },
        {
            "children" : [
                6
            ],
            "mesh" : 7,
            "name" : "Trigger",
            "translation" : [
                8.0046984294313e-06,
                -0.018433496356010437,
                0.0025840364396572113
            ]
        }
    ],
    "meshes" : [
        {
            "name" : "Cube.002",
            "primitives" : [
                {
                    "attributes" : {
                        "POSITION" : 0,
                        "NORMAL" : 1,
                        "TEXCOORD_0" : 2
                    },
                    "indices" : 3
                }
            ]
        },
        {
            "name" : "Cube.004",
            "primitives" : [
                {
                    "attributes" : {
                        "POSITION" : 4,
                        "NORMAL" : 5,
                        "TEXCOORD_0" : 6
                    },
                    "indices" : 7
                }
            ]
        },
        {
            "name" : "Cylinder.004",
            "primitives" : [
                {
                    "attributes" : {
                        "POSITION" : 8,
                        "NORMAL" : 9,
                        "TEXCOORD_0" : 10
                    },
                    "indices" : 11
                }
            ]
        },
        {
            "name" : "Cube.005",
            "primitives" : [
                {
                    "attributes" : {
                        "POSITION" : 12,
                        "NORMAL" : 13,
                        "TEXCOORD_0" : 14
                    },
                    "indices" : 15
                }
            ]
        },
        {
            "name" : "Cube.003",
            "primitives" : [
                {
                    "attributes" : {
                        "POSITION" : 16,
                        "NORMAL" : 17,
                        "TEXCOORD_0" : 18
                    },
                    "indices" : 19
                }
            ]
        },
        {
            "name" : "Cube.006",
            "primitives" : [
                {
                    "attributes" : {
                        "POSITION" : 20,
                        "NORMAL" : 21,
                        "TEXCOORD_0" : 22
                    },
                    "indices" : 23
                }
            ]
        },
        {
            "name" : "Plane.001",
            "primitives" : [
                {
                    "attributes" : {
                        "POSITION" : 24,
                        "NORMAL" : 25,
                        "TEXCOORD_0" : 26
                    },
                    "indices" : 27
                }
            ]
        },
        {
            "name" : "Cube.007",
            "primitives" : [
                {
                    "attributes" : {
                        "POSITION" : 28,
                        "NORMAL" : 29,
                        "TEXCOORD_0" : 30
                    },
                    "indices" : 31
                }
            ]
        }
    ],
    "accessors" : [
        {
            "bufferView" : 0,
            "componentType" : 5126,
            "count" : 46,
            "max" : [
                0.0007640821859240532,
                0.012392513453960419,
                0.005097227171063423
            ],
            "min" : [
                -0.0035991212353110313,
                0,
                -0.0050972262397408485
            ],
            "type" : "VEC3"
        },
        {
            "bufferView" : 1,
            "componentType" : 5126,
            "count" : 46,
            "type" : "VEC3"
        },
        {
            "bufferView" : 2,
            "componentType" : 5126,
            "count" : 46,
            "type" : "VEC2"
        },
        {
            "bufferView" : 3,
            "componentType" : 5123,
            "count" : 78,
            "type" : "SCALAR"
        },
        {
            "bufferView" : 4,
            "componentType" : 5126,
            "count" : 1374,
            "max" : [
                0.015271782875061035,
                0.047644369304180145,
                0.11494708061218262
            ],
            "min" : [
                -0.015249560587108135,
                -0.11783652752637863,
                -0.2530498504638672
            ],
            "type" : "VEC3"
        },
        {
            "bufferView" : 5,
            "componentType" : 5126,
            "count" : 1374,
            "type" : "VEC3"
        },
        {
            "bufferView" : 6,
            "componentType" : 5126,
            "count" : 1374,
            "type" : "VEC2"
        },
        {
            "bufferView" : 7,
            "componentType" : 5123,
            "count" : 4266,
            "type" : "SCALAR"
        },
        {
            "bufferView" : 8,
            "componentType" : 5126,
            "count" : 494,
            "max" : [
                0.023269381374120712,
                0.023416828364133835,
                0.022353658452630043
            ],
            "min" : [
                -0.02326938509941101,
                -0.023416828364133835,
                -0.02235366962850094
            ],
            "type" : "VEC3"
        },
        {
            "bufferView" : 9,
            "componentType" : 5126,
            "count" : 494,
            "type" : "VEC3"
        },
        {
            "bufferView" : 10,
            "componentType" : 5126,
            "count" : 494,
            "type" : "VEC2"
        },
        {
            "bufferView" : 11,
            "componentType" : 5123,
            "count" : 1656,
            "type" : "SCALAR"
        },
        {
            "bufferView" : 12,
            "componentType" : 5126,
            "count" : 72,
            "max" : [
                0.004639007616788149,
                0.00535667035728693,
                0.02384285442531109
            ],
            "min" : [
                -0.004639019723981619,
                -0.005356675945222378,
                -0.023868368938565254
            ],
            "type" : "VEC3"
        },
        {
            "bufferView" : 13,
            "componentType" : 5126,
            "count" : 72,
            "type" : "VEC3"
        },
        {
            "bufferView" : 14,
            "componentType" : 5126,
            "count" : 72,
            "type" : "VEC2"
        },
        {
            "bufferView" : 15,
            "componentType" : 5123,
            "count" : 120,
            "type" : "SCALAR"
        },
        {
            "bufferView" : 16,
            "componentType" : 5126,
            "count" : 60,
            "max" : [
                0.0022716624662280083,
                0.022460805252194405,
                -0.022572768852114677
            ],
            "min" : [
                -0.0022716510575264692,
                -0.0026230867952108383,
                -0.02401569113135338
            ],
            "type" : "VEC3"
        },
        {
            "bufferView" : 17,
            "componentType" : 5126,
            "count" : 60,
            "type" : "VEC3"
        },
        {
            "bufferView" : 18,
            "componentType" : 5126,
            "count" : 60,
            "type" : "VEC2"
        },
        {
            "bufferView" : 19,
            "componentType" : 5123,
            "count" : 96,
            "type" : "SCALAR"
        },
        {
            "bufferView" : 20,
            "componentType" : 5126,
            "count" : 74,
            "max" : [
                0.004471638239920139,
                0.004516047425568104,
                0.00128854566719383
            ],
            "min" : [
                -0.004469644278287888,
                -0.005173688754439354,
                -0.02003725990653038
            ],
            "type" : "VEC3"
        },
        {
            "bufferView" : 21,
            "componentType" : 5126,
            "count" : 74,
            "type" : "VEC3"
        },
        {
            "bufferView" : 22,
            "componentType" : 5126,
            "count" : 74,
            "type" : "VEC2"
        },
        {
            "bufferView" : 23,
            "componentType" : 5123,
            "count" : 228,
            "type" : "SCALAR"
        },
        {
            "bufferView" : 24,
            "componentType" : 5126,
            "count" : 154,
            "max" : [
                0.0037500327453017235,
                0.04559930041432381,
                0.034249335527420044
            ],
            "min" : [
                -0.0037500234320759773,
                -0.00044621751294471323,
                -0.007985041476786137
            ],
            "type" : "VEC3"
        },
        {
            "bufferView" : 25,
            "componentType" : 5126,
            "count" : 154,
            "type" : "VEC3"
        },
        {
            "bufferView" : 26,
            "componentType" : 5126,
            "count" : 154,
            "type" : "VEC2"
        },
        {
            "bufferView" : 27,
            "componentType" : 5123,
            "count" : 498,
            "type" : "SCALAR"
        },
        {
            "bufferView" : 28,
            "componentType" : 5126,
            "count" : 86,
            "max" : [
                0.0028841993771493435,
                0.0012013113591820002,
                0.006334173958748579
            ],
            "min" : [
                -0.0028805064503103495,
                -0.03593521565198898,
                -0.014747911132872105
            ],
            "type" : "VEC3"
        },
        {
            "bufferView" : 29,
            "componentType" : 5126,
            "count" : 86,
            "type" : "VEC3"
        },
        {
            "bufferView" : 30,
            "componentType" : 5126,
            "count" : 86,
            "type" : "VEC2"
        },
        {
            "bufferView" : 31,
            "componentType" : 5123,
            "count" : 276,
            "type" : "SCALAR"
        }
    ],
    "bufferViews" : [
        {
            "buffer" : 0,
            "byteLength" : 552,
            "byteOffset" : 0
        },
        {
            "buffer" : 0,
            "byteLength" : 552,
            "byteOffset" : 552
        },
        {
            "buffer" : 0,
            "byteLength" : 368,
            "byteOffset" : 1104
        },
        {
            "buffer" : 0,
            "byteLength" : 156,
            "byteOffset" : 1472
        },
        {
            "buffer" : 0,
            "byteLength" : 16488,
            "byteOffset" : 1628
        },
        {
            "buffer" : 0,
            "byteLength" : 16488,
            "byteOffset" : 18116
        },
        {
            "buffer" : 0,
            "byteLength" : 10992,
            "byteOffset" : 34604
        },
        {
            "buffer" : 0,
            "byteLength" : 8532,
            "byteOffset" : 45596
        },
        {
            "buffer" : 0,
            "byteLength" : 5928,
            "byteOffset" : 54128
        },
        {
            "buffer" : 0,
            "byteLength" : 5928,
            "byteOffset" : 60056
        },
        {
            "buffer" : 0,
            "byteLength" : 3952,
            "byteOffset" : 65984
        },
        {
            "buffer" : 0,
            "byteLength" : 3312,
            "byteOffset" : 69936
        },
        {
            "buffer" : 0,
            "byteLength" : 864,
            "byteOffset" : 73248
        },
        {
            "buffer" : 0,
            "byteLength" : 864,
            "byteOffset" : 74112
        },
        {
            "buffer" : 0,
            "byteLength" : 576,
            "byteOffset" : 74976
        },
        {
            "buffer" : 0,
            "byteLength" : 240,
            "byteOffset" : 75552
        },
        {
            "buffer" : 0,
            "byteLength" : 720,
            "byteOffset" : 75792
        },
        {
            "buffer" : 0,
            "byteLength" : 720,
            "byteOffset" : 76512
        },
        {
            "buffer" : 0,
            "byteLength" : 480,
            "byteOffset" : 77232
        },
        {
            "buffer" : 0,
            "byteLength" : 192,
            "byteOffset" : 77712
        },
        {
            "buffer" : 0,
            "byteLength" : 888,
            "byteOffset" : 77904
        },
        {
            "buffer" : 0,
            "byteLength" : 888,
            "byteOffset" : 78792
        },
        {
            "buffer" : 0,
            "byteLength" : 592,
            "byteOffset" : 79680
        },
        {
            "buffer" : 0,
            "byteLength" : 456,
            "byteOffset" : 80272
        },
        {
            "buffer" : 0,
            "byteLength" : 1848,
            "byteOffset" : 80728
        },
        {
            "buffer" : 0,
            "byteLength" : 1848,
            "byteOffset" : 82576
        },
        {
            "buffer" : 0,
            "byteLength" : 1232,
            "byteOffset" : 84424
        },
        {
            "buffer" : 0,
            "byteLength" : 996,
            "byteOffset" : 85656
        },
        {
            "buffer" : 0,
            "byteLength" : 1032,
            "byteOffset" : 86652
        },
        {
            "buffer" : 0,
            "byteLength" : 1032,
            "byteOffset" : 87684
        },
        {
            "buffer" : 0,
            "byteLength" : 688,
            "byteOffset" : 88716
        },
        {
            "buffer" : 0,
            "byteLength" : 552,
            "byteOffset" : 89404
        }
    ],
    "buffers" : [
        {
            "byteLength" : 89956,
            "uri" : "data:application/octet-stream;base64,"
        }
    ]
}
