{
    "asset" : {
        "copyright" : "CC0 Public Domain",
        "generator" : "Khronos glTF Blender I/O v3.2.43",
        "version" : "2.0"
    },
    "scene" : 0,
    "scenes" : [
        {
            "name" : "Scene",
            "nodes" : [
                0
            ]
        }
    ],
    "nodes" : [
        {
            "mesh" : 0,
            "name" : "Combat_Knife"
        }
    ],
    "meshes" : [
        {
            "name" : "Combat_Knife",
            "primitives" : [
                {
                    "attributes" : {
                        "POSITION" : 0,
                        "NORMAL" : 1,
                        "TEXCOORD_0" : 2
                    },
                    "indices" : 3
                }
            ]
        }
    ],
    "accessors" : [
        {
            "bufferView" : 0,
            "componentType" : 5126,
            "count" : 1378,
            "max" : [
                0.014999890699982643,
                0.13884903490543365,
                0.03362070769071579
            ],
            "min" : [
                -0.014999870210886002,
                -0.23259389400482178,
                -0.03538971394300461
            ],
            "type" : "VEC3"
        },
        {
            "bufferView" : 1,
            "componentType" : 5126,
            "count" : 1378,
            "type" : "VEC3"
        },
        {
            "bufferView" : 2,
            "componentType" : 5126,
            "count" : 1378,
            "type" : "VEC2"
        },
        {
            "bufferView" : 3,
            "componentType" : 5123,
            "count" : 4650,
            "type" : "SCALAR"
        }
    ],
    "bufferViews" : [
        {
            "buffer" : 0,
            "byteLength" : 16536,
            "byteOffset" : 0
        },
        {
            "buffer" : 0,
            "byteLength" : 16536,
            "byteOffset" : 16536
        },
        {
            "buffer" : 0,
            "byteLength" : 11024,
            "byteOffset" : 33072
        },
        {
            "buffer" : 0,
            "byteLength" : 9300,
            "byteOffset" : 44096
        }
    ],
    "buffers" : [
        {
            "byteLength" : 53396,
            "uri" : "data:application/octet-stream;base64,"
        }
    ]
}
