{
    "asset" : {
        "copyright" : "CC0 Public Domain",
        "generator" : "Khronos glTF Blender I/O v3.2.43",
        "version" : "2.0"
    },
    "scene" : 0,
    "scenes" : [
        {
            "name" : "Scene",
            "nodes" : [
                0
            ]
        }
    ],
    "nodes" : [
        {
            "mesh" : 0,
            "name" : "Watermelon"
        }
    ],
    "meshes" : [
        {
            "name" : "Sphere",
            "primitives" : [
                {
                    "attributes" : {
                        "POSITION" : 0,
                        "NORMAL" : 1,
                        "TEXCOORD_0" : 2
                    },
                    "indices" : 3
                }
            ]
        }
    ],
    "accessors" : [
        {
            "bufferView" : 0,
            "componentType" : 5126,
            "count" : 323,
            "max" : [
                0.12237019836902618,
                0.11809397488832474,
                0.11722757667303085
            ],
            "min" : [
                -0.12327392399311066,
                -0.12094078212976456,
                -0.12039314210414886
            ],
            "type" : "VEC3"
        },
        {
            "bufferView" : 1,
            "componentType" : 5126,
            "count" : 323,
            "type" : "VEC3"
        },
        {
            "bufferView" : 2,
            "componentType" : 5126,
            "count" : 323,
            "type" : "VEC2"
        },
        {
            "bufferView" : 3,
            "componentType" : 5123,
            "count" : 1584,
            "type" : "SCALAR"
        }
    ],
    "bufferViews" : [
        {
            "buffer" : 0,
            "byteLength" : 3876,
            "byteOffset" : 0
        },
        {
            "buffer" : 0,
            "byteLength" : 3876,
            "byteOffset" : 3876
        },
        {
            "buffer" : 0,
            "byteLength" : 2584,
            "byteOffset" : 7752
        },
        {
            "buffer" : 0,
            "byteLength" : 3168,
            "byteOffset" : 10336
        }
    ],
    "buffers" : [
        {
            "byteLength" : 13504,
            "uri" : "data:application/octet-stream;base64,"
        }
    ]
}
