{
    "asset" : {
        "copyright" : "CC0 Public Domain",
        "generator" : "Khronos glTF Blender I/O v3.2.43",
        "version" : "2.0"
    },
    "scene" : 0,
    "scenes" : [
        {
            "name" : "Scene",
            "nodes" : [
                0
            ]
        }
    ],
    "nodes" : [
        {
            "mesh" : 0,
            "name" : "Machete"
        }
    ],
    "meshes" : [
        {
            "name" : "Mesh",
            "primitives" : [
                {
                    "attributes" : {
                        "POSITION" : 0,
                        "NORMAL" : 1,
                        "TEXCOORD_0" : 2
                    },
                    "indices" : 3
                }
            ]
        }
    ],
    "accessors" : [
        {
            "bufferView" : 0,
            "componentType" : 5126,
            "count" : 1227,
            "max" : [
                0.17829850316047668,
                0.03486040607094765,
                0.009789880365133286
            ],
            "min" : [
                -0.3365424573421478,
                -0.04381203651428223,
                -0.010992541909217834
            ],
            "type" : "VEC3"
        },
        {
            "bufferView" : 1,
            "componentType" : 5126,
            "count" : 1227,
            "type" : "VEC3"
        },
        {
            "bufferView" : 2,
            "componentType" : 5126,
            "count" : 1227,
            "type" : "VEC2"
        },
        {
            "bufferView" : 3,
            "componentType" : 5123,
            "count" : 6408,
            "type" : "SCALAR"
        }
    ],
    "bufferViews" : [
        {
            "buffer" : 0,
            "byteLength" : 14724,
            "byteOffset" : 0
        },
        {
            "buffer" : 0,
            "byteLength" : 14724,
            "byteOffset" : 14724
        },
        {
            "buffer" : 0,
            "byteLength" : 9816,
            "byteOffset" : 29448
        },
        {
            "buffer" : 0,
            "byteLength" : 12816,
            "byteOffset" : 39264
        }
    ],
    "buffers" : [
        {
            "byteLength" : 52080,
            "uri" : "data:application/octet-stream;base64,"
        }
    ]
}
