{
    "asset" : {
        "copyright" : "CC0 Public Domain",
        "generator" : "Khronos glTF Blender I/O v3.2.43",
        "version" : "2.0"
    },
    "scene" : 0,
    "scenes" : [
        {
            "name" : "Scene",
            "nodes" : [
                0,
                1,
                2,
                3
            ]
        }
    ],
    "nodes" : [
        {
            "mesh" : 0,
            "name" : "Trigger"
        },
        {
            "mesh" : 1,
            "name" : "Hammer"
        },
        {
            "mesh" : 2,
            "name" : "Barrel"
        },
        {
            "mesh" : 3,
            "name" : "Body"
        }
    ],
    "meshes" : [
        {
            "name" : "Mesh",
            "primitives" : [
                {
                    "attributes" : {
                        "POSITION" : 0,
                        "NORMAL" : 1,
                        "TEXCOORD_0" : 2
                    },
                    "indices" : 3
                }
            ]
        },
        {
            "name" : "Mesh.001",
            "primitives" : [
                {
                    "attributes" : {
                        "POSITION" : 4,
                        "NORMAL" : 5,
                        "TEXCOORD_0" : 6
                    },
                    "indices" : 7
                }
            ]
        },
        {
            "name" : "Mesh.002",
            "primitives" : [
                {
                    "attributes" : {
                        "POSITION" : 8,
                        "NORMAL" : 9,
                        "TEXCOORD_0" : 10
                    },
                    "indices" : 11
                }
            ]
        },
        {
            "name" : "Mesh.003",
            "primitives" : [
                {
                    "attributes" : {
                        "POSITION" : 12,
                        "NORMAL" : 13,
                        "TEXCOORD_0" : 14
                    },
                    "indices" : 15
                }
            ]
        }
    ],
    "accessors" : [
        {
            "bufferView" : 0,
            "componentType" : 5126,
            "count" : 76,
            "max" : [
                0.004876107908785343,
                -0.00785546749830246,
                0.010231603868305683
            ],
            "min" : [
                0.00043346756137907505,
                -0.0438520722091198,
                -0.005284272134304047
            ],
            "type" : "VEC3"
        },
        {
            "bufferView" : 1,
            "componentType" : 5126,
            "count" : 76,
            "type" : "VEC3"
        },
        {
            "bufferView" : 2,
            "componentType" : 5126,
            "count" : 76,
            "type" : "VEC2"
        },
        {
            "bufferView" : 3,
            "componentType" : 5123,
            "count" : 180,
            "type" : "SCALAR"
        },
        {
            "bufferView" : 4,
            "componentType" : 5126,
            "count" : 270,
            "max" : [
                0.005433869548141956,
                0.045164208859205246,
                0.06632402539253235
            ],
            "min" : [
                -0.003596679773181677,
                0.01363289449363947,
                0.013980478048324585
            ],
            "type" : "VEC3"
        },
        {
            "bufferView" : 5,
            "componentType" : 5126,
            "count" : 270,
            "type" : "VEC3"
        },
        {
            "bufferView" : 6,
            "componentType" : 5126,
            "count" : 270,
            "type" : "VEC2"
        },
        {
            "bufferView" : 7,
            "componentType" : 5123,
            "count" : 678,
            "type" : "SCALAR"
        },
        {
            "bufferView" : 8,
            "componentType" : 5126,
            "count" : 600,
            "max" : [
                0.01678883656859398,
                0.048888735473155975,
                -0.00557515025138855
            ],
            "min" : [
                -0.01592189446091652,
                -0.01604783535003662,
                -0.13124611973762512
            ],
            "type" : "VEC3"
        },
        {
            "bufferView" : 9,
            "componentType" : 5126,
            "count" : 600,
            "type" : "VEC3"
        },
        {
            "bufferView" : 10,
            "componentType" : 5126,
            "count" : 600,
            "type" : "VEC2"
        },
        {
            "bufferView" : 11,
            "componentType" : 5123,
            "count" : 1653,
            "type" : "SCALAR"
        },
        {
            "bufferView" : 12,
            "componentType" : 5126,
            "count" : 1210,
            "max" : [
                0.016803666949272156,
                0.046129222959280014,
                0.12560920417308807
            ],
            "min" : [
                -0.015936724841594696,
                -0.10191091150045395,
                -0.0794762372970581
            ],
            "type" : "VEC3"
        },
        {
            "bufferView" : 13,
            "componentType" : 5126,
            "count" : 1210,
            "type" : "VEC3"
        },
        {
            "bufferView" : 14,
            "componentType" : 5126,
            "count" : 1210,
            "type" : "VEC2"
        },
        {
            "bufferView" : 15,
            "componentType" : 5123,
            "count" : 4332,
            "type" : "SCALAR"
        }
    ],
    "bufferViews" : [
        {
            "buffer" : 0,
            "byteLength" : 912,
            "byteOffset" : 0
        },
        {
            "buffer" : 0,
            "byteLength" : 912,
            "byteOffset" : 912
        },
        {
            "buffer" : 0,
            "byteLength" : 608,
            "byteOffset" : 1824
        },
        {
            "buffer" : 0,
            "byteLength" : 360,
            "byteOffset" : 2432
        },
        {
            "buffer" : 0,
            "byteLength" : 3240,
            "byteOffset" : 2792
        },
        {
            "buffer" : 0,
            "byteLength" : 3240,
            "byteOffset" : 6032
        },
        {
            "buffer" : 0,
            "byteLength" : 2160,
            "byteOffset" : 9272
        },
        {
            "buffer" : 0,
            "byteLength" : 1356,
            "byteOffset" : 11432
        },
        {
            "buffer" : 0,
            "byteLength" : 7200,
            "byteOffset" : 12788
        },
        {
            "buffer" : 0,
            "byteLength" : 7200,
            "byteOffset" : 19988
        },
        {
            "buffer" : 0,
            "byteLength" : 4800,
            "byteOffset" : 27188
        },
        {
            "buffer" : 0,
            "byteLength" : 3306,
            "byteOffset" : 31988
        },
        {
            "buffer" : 0,
            "byteLength" : 14520,
            "byteOffset" : 35296
        },
        {
            "buffer" : 0,
            "byteLength" : 14520,
            "byteOffset" : 49816
        },
        {
            "buffer" : 0,
            "byteLength" : 9680,
            "byteOffset" : 64336
        },
        {
            "buffer" : 0,
            "byteLength" : 8664,
            "byteOffset" : 74016
        }
    ],
    "buffers" : [
        {
            "byteLength" : 82680,
            "uri" : "data:application/octet-stream;base64,"
        }
    ]
}
