{
    "asset" : {
        "copyright" : "CC0 Public Domain",
        "generator" : "Khronos glTF Blender I/O v3.2.43",
        "version" : "2.0"
    },
    "scene" : 0,
    "scenes" : [
        {
            "name" : "Scene",
            "nodes" : [
                0
            ]
        }
    ],
    "nodes" : [
        {
            "mesh" : 0,
            "name" : "Tomahawk",
            "rotation" : [
                0.5000000596046448,
                -0.5,
                0.5,
                0.5
            ],
            "scale" : [
                0.009999999776482582,
                0.009999999776482582,
                0.009999999776482582
            ]
        }
    ],
    "meshes" : [
        {
            "name" : "Tomahawk",
            "primitives" : [
                {
                    "attributes" : {
                        "POSITION" : 0,
                        "NORMAL" : 1,
                        "TEXCOORD_0" : 2
                    },
                    "indices" : 3
                }
            ]
        }
    ],
    "accessors" : [
        {
            "bufferView" : 0,
            "componentType" : 5126,
            "count" : 601,
            "max" : [
                4.59357213973999,
                1.4548590183258057,
                23.83255386352539
            ],
            "min" : [
                -9.251018524169922,
                -1.4548606872558594,
                -20.439815521240234
            ],
            "type" : "VEC3"
        },
        {
            "bufferView" : 1,
            "componentType" : 5126,
            "count" : 601,
            "type" : "VEC3"
        },
        {
            "bufferView" : 2,
            "componentType" : 5126,
            "count" : 601,
            "type" : "VEC2"
        },
        {
            "bufferView" : 3,
            "componentType" : 5123,
            "count" : 1614,
            "type" : "SCALAR"
        }
    ],
    "bufferViews" : [
        {
            "buffer" : 0,
            "byteLength" : 7212,
            "byteOffset" : 0
        },
        {
            "buffer" : 0,
            "byteLength" : 7212,
            "byteOffset" : 7212
        },
        {
            "buffer" : 0,
            "byteLength" : 4808,
            "byteOffset" : 14424
        },
        {
            "buffer" : 0,
            "byteLength" : 3228,
            "byteOffset" : 19232
        }
    ],
    "buffers" : [
        {
            "byteLength" : 22460,
            "uri" : "data:application/octet-stream;base64,"
        }
    ]
}
