{
    "asset" : {
        "copyright" : "CC0 Public Domain",
        "generator" : "Khronos glTF Blender I/O v3.2.43",
        "version" : "2.0"
    },
    "scene" : 0,
    "scenes" : [
        {
            "name" : "Scene",
            "nodes" : [
                0,
                1,
                3
            ]
        }
    ],
    "nodes" : [
        {
            "mesh" : 0,
            "name" : "DoubleBarrelShotgun"
        },
        {
            "mesh" : 1,
            "name" : "Barrel",
            "translation" : [
                5.8223300584359095e-05,
                0,
                -0.17410233616828918
            ]
        },
        {
            "mesh" : 2,
            "name" : "Trigger"
        },
        {
            "children" : [
                2
            ],
            "mesh" : 3,
            "name" : "Trigger2"
        }
    ],
    "meshes" : [
        {
            "name" : "Cylinder.004",
            "primitives" : [
                {
                    "attributes" : {
                        "POSITION" : 0,
                        "NORMAL" : 1,
                        "TEXCOORD_0" : 2
                    },
                    "indices" : 3
                }
            ]
        },
        {
            "name" : "Cylinder.005",
            "primitives" : [
                {
                    "attributes" : {
                        "POSITION" : 4,
                        "NORMAL" : 5,
                        "TEXCOORD_0" : 6
                    },
                    "indices" : 7
                }
            ]
        },
        {
            "name" : "Cylinder.009",
            "primitives" : [
                {
                    "attributes" : {
                        "POSITION" : 8,
                        "NORMAL" : 9,
                        "TEXCOORD_0" : 10
                    },
                    "indices" : 11
                }
            ]
        },
        {
            "name" : "Cylinder.007",
            "primitives" : [
                {
                    "attributes" : {
                        "POSITION" : 12,
                        "NORMAL" : 13,
                        "TEXCOORD_0" : 14
                    },
                    "indices" : 15
                }
            ]
        }
    ],
    "accessors" : [
        {
            "bufferView" : 0,
            "componentType" : 5126,
            "count" : 1525,
            "max" : [
                0.03196263313293457,
                0.056505341082811356,
                0.23005788028240204
            ],
            "min" : [
                -0.03178640082478523,
                -0.1436859667301178,
                -0.18693028390407562
            ],
            "type" : "VEC3"
        },
        {
            "bufferView" : 1,
            "componentType" : 5126,
            "count" : 1525,
            "type" : "VEC3"
        },
        {
            "bufferView" : 2,
            "componentType" : 5126,
            "count" : 1525,
            "type" : "VEC2"
        },
        {
            "bufferView" : 3,
            "componentType" : 5123,
            "count" : 6516,
            "type" : "SCALAR"
        },
        {
            "bufferView" : 4,
            "componentType" : 5126,
            "count" : 710,
            "max" : [
                0.031159494072198868,
                0.05613119155168533,
                0.09881112724542618
            ],
            "min" : [
                -0.03139742091298103,
                -0.020449373871088028,
                -0.2757855951786041
            ],
            "type" : "VEC3"
        },
        {
            "bufferView" : 5,
            "componentType" : 5126,
            "count" : 710,
            "type" : "VEC3"
        },
        {
            "bufferView" : 6,
            "componentType" : 5126,
            "count" : 710,
            "type" : "VEC2"
        },
        {
            "bufferView" : 7,
            "componentType" : 5123,
            "count" : 2265,
            "type" : "SCALAR"
        },
        {
            "bufferView" : 8,
            "componentType" : 5126,
            "count" : 44,
            "max" : [
                0.0051483153365552425,
                -0.02783474326133728,
                -0.003242507576942444
            ],
            "min" : [
                -0.006260393653064966,
                -0.07091973721981049,
                -0.017908811569213867
            ],
            "type" : "VEC3"
        },
        {
            "bufferView" : 9,
            "componentType" : 5126,
            "count" : 44,
            "type" : "VEC3"
        },
        {
            "bufferView" : 10,
            "componentType" : 5126,
            "count" : 44,
            "type" : "VEC2"
        },
        {
            "bufferView" : 11,
            "componentType" : 5123,
            "count" : 102,
            "type" : "SCALAR"
        },
        {
            "bufferView" : 12,
            "componentType" : 5126,
            "count" : 44,
            "max" : [
                0.005148313939571381,
                -0.02845429815351963,
                0.02374337613582611
            ],
            "min" : [
                -0.006260392256081104,
                -0.07074693590402603,
                -5.7443976402282715e-05
            ],
            "type" : "VEC3"
        },
        {
            "bufferView" : 13,
            "componentType" : 5126,
            "count" : 44,
            "type" : "VEC3"
        },
        {
            "bufferView" : 14,
            "componentType" : 5126,
            "count" : 44,
            "type" : "VEC2"
        },
        {
            "bufferView" : 15,
            "componentType" : 5123,
            "count" : 102,
            "type" : "SCALAR"
        }
    ],
    "bufferViews" : [
        {
            "buffer" : 0,
            "byteLength" : 18300,
            "byteOffset" : 0
        },
        {
            "buffer" : 0,
            "byteLength" : 18300,
            "byteOffset" : 18300
        },
        {
            "buffer" : 0,
            "byteLength" : 12200,
            "byteOffset" : 36600
        },
        {
            "buffer" : 0,
            "byteLength" : 13032,
            "byteOffset" : 48800
        },
        {
            "buffer" : 0,
            "byteLength" : 8520,
            "byteOffset" : 61832
        },
        {
            "buffer" : 0,
            "byteLength" : 8520,
            "byteOffset" : 70352
        },
        {
            "buffer" : 0,
            "byteLength" : 5680,
            "byteOffset" : 78872
        },
        {
            "buffer" : 0,
            "byteLength" : 4530,
            "byteOffset" : 84552
        },
        {
            "buffer" : 0,
            "byteLength" : 528,
            "byteOffset" : 89084
        },
        {
            "buffer" : 0,
            "byteLength" : 528,
            "byteOffset" : 89612
        },
        {
            "buffer" : 0,
            "byteLength" : 352,
            "byteOffset" : 90140
        },
        {
            "buffer" : 0,
            "byteLength" : 204,
            "byteOffset" : 90492
        },
        {
            "buffer" : 0,
            "byteLength" : 528,
            "byteOffset" : 90696
        },
        {
            "buffer" : 0,
            "byteLength" : 528,
            "byteOffset" : 91224
        },
        {
            "buffer" : 0,
            "byteLength" : 352,
            "byteOffset" : 91752
        },
        {
            "buffer" : 0,
            "byteLength" : 204,
            "byteOffset" : 92104
        }
    ],
    "buffers" : [
        {
            "byteLength" : 92308,
            "uri" : "data:application/octet-stream;base64,"
        }
    ]
}
