{
    "asset" : {
        "copyright" : "CC0 Public Domain",
        "generator" : "Khronos glTF Blender I/O v3.2.43",
        "version" : "2.0"
    },
    "scene" : 0,
    "scenes" : [
        {
            "name" : "Scene",
            "nodes" : [
                0
            ]
        }
    ],
    "nodes" : [
        {
            "mesh" : 0,
            "name" : "Spear"
        }
    ],
    "meshes" : [
        {
            "name" : "Mesh",
            "primitives" : [
                {
                    "attributes" : {
                        "POSITION" : 0,
                        "NORMAL" : 1,
                        "TEXCOORD_0" : 2
                    },
                    "indices" : 3
                }
            ]
        }
    ],
    "accessors" : [
        {
            "bufferView" : 0,
            "componentType" : 5126,
            "count" : 685,
            "max" : [
                0.023662904277443886,
                0.965816855430603,
                0.023662831634283066
            ],
            "min" : [
                -0.023663124069571495,
                -1.0503069162368774,
                -0.023663196712732315
            ],
            "type" : "VEC3"
        },
        {
            "bufferView" : 1,
            "componentType" : 5126,
            "count" : 685,
            "type" : "VEC3"
        },
        {
            "bufferView" : 2,
            "componentType" : 5126,
            "count" : 685,
            "type" : "VEC2"
        },
        {
            "bufferView" : 3,
            "componentType" : 5123,
            "count" : 2112,
            "type" : "SCALAR"
        }
    ],
    "bufferViews" : [
        {
            "buffer" : 0,
            "byteLength" : 8220,
            "byteOffset" : 0
        },
        {
            "buffer" : 0,
            "byteLength" : 8220,
            "byteOffset" : 8220
        },
        {
            "buffer" : 0,
            "byteLength" : 5480,
            "byteOffset" : 16440
        },
        {
            "buffer" : 0,
            "byteLength" : 4224,
            "byteOffset" : 21920
        }
    ],
    "buffers" : [
        {
            "byteLength" : 26144,
            "uri" : "data:application/octet-stream;base64,"
        }
    ]
}
