{
    "asset" : {
        "copyright" : "CC0 Public Domain",
        "generator" : "Khronos glTF Blender I/O v3.2.43",
        "version" : "2.0"
    },
    "scene" : 0,
    "scenes" : [
        {
            "name" : "Scene",
            "nodes" : [
                0
            ]
        }
    ],
    "nodes" : [
        {
            "mesh" : 0,
            "name" : "Spade"
        }
    ],
    "meshes" : [
        {
            "name" : "Mesh",
            "primitives" : [
                {
                    "attributes" : {
                        "POSITION" : 0,
                        "NORMAL" : 1,
                        "TEXCOORD_0" : 2
                    },
                    "indices" : 3
                }
            ]
        }
    ],
    "accessors" : [
        {
            "bufferView" : 0,
            "componentType" : 5126,
            "count" : 895,
            "max" : [
                0.021395519375801086,
                0.6794376373291016,
                0.10528191924095154
            ],
            "min" : [
                -0.01869671419262886,
                -0.5020530819892883,
                -0.10502158850431442
            ],
            "type" : "VEC3"
        },
        {
            "bufferView" : 1,
            "componentType" : 5126,
            "count" : 895,
            "type" : "VEC3"
        },
        {
            "bufferView" : 2,
            "componentType" : 5126,
            "count" : 895,
            "type" : "VEC2"
        },
        {
            "bufferView" : 3,
            "componentType" : 5123,
            "count" : 3072,
            "type" : "SCALAR"
        }
    ],
    "bufferViews" : [
        {
            "buffer" : 0,
            "byteLength" : 10740,
            "byteOffset" : 0
        },
        {
            "buffer" : 0,
            "byteLength" : 10740,
            "byteOffset" : 10740
        },
        {
            "buffer" : 0,
            "byteLength" : 7160,
            "byteOffset" : 21480
        },
        {
            "buffer" : 0,
            "byteLength" : 6144,
            "byteOffset" : 28640
        }
    ],
    "buffers" : [
        {
            "byteLength" : 34784,
            "uri" : "data:application/octet-stream;base64,"
        }
    ]
}
